<svg width="255" height="111" viewBox="0 0 255 111" fill="none" xmlns="http://www.w3.org/2000/svg">
<circle cx="50" cy="59" r="50" fill="white"/>
<path fill-rule="evenodd" clip-rule="evenodd" d="M83.487 96.1303C74.6229 104.13 62.8802 109 50 109C43.1862 109 36.6907 107.637 30.7713 105.169C30.6103 104.029 30.6931 103.116 30.9238 102.385C31.2127 101.471 31.7655 100.739 32.5707 100.151C34.2473 98.9254 37.0193 98.3313 40.4489 98.395C42.3417 98.4302 43.9202 97.0227 44.2104 95.2164C44.9916 90.3544 47.1895 88.6119 49.2986 88.3506C51.6206 88.0629 54.6626 89.4243 57.2634 92.4736C58.1078 93.4636 59.3434 93.9069 60.4931 93.8907C61.6458 93.8744 62.8883 93.3907 63.6802 92.2995C64.7739 90.7924 66.2794 89.0102 68.0894 87.5785C69.9032 86.1437 71.9314 85.1322 74.0936 84.9971C77.1476 84.8062 79.4793 87.1773 81.1852 90.2844C82.004 91.7757 82.596 93.2963 82.9844 94.4537C83.1776 95.0296 83.3182 95.5089 83.4096 95.8408C83.4413 95.956 83.4671 96.0532 83.487 96.1303ZM85.9213 93.7802C85.8917 93.6891 85.8608 93.5954 85.8286 93.4994C85.4043 92.235 84.7463 90.5369 83.8149 88.8406C82.0207 85.5727 78.8522 81.6938 73.9064 82.0029C70.9245 82.1893 68.3254 83.5667 66.2282 85.2256C64.1271 86.8876 62.4377 88.9038 61.2522 90.5374C61.115 90.7265 60.84 90.8855 60.4509 90.891C60.0588 90.8965 59.7282 90.7405 59.546 90.5268C56.5873 87.0581 52.6342 84.9144 48.9298 85.3734C45.0124 85.8586 42.1524 89.1143 41.2484 94.7405C41.1851 95.1347 40.8402 95.4018 40.5047 95.3956C36.845 95.3275 33.2695 95.9242 30.8006 97.7285C29.5331 98.6548 28.5636 99.8975 28.0632 101.482C27.8379 102.195 27.7146 102.955 27.6917 103.76C14.9755 97.4097 5.34441 85.8002 1.6485 71.7813L6.59481 70.6821C7.90051 70.392 8.77537 69.4481 9.17485 68.4C9.56852 67.3672 9.545 66.1427 9.01003 65.0771C8.81741 64.6935 8.68112 64.3467 8.60982 64.0573C8.55503 63.8349 8.55234 63.7018 8.55724 63.6376C8.65481 63.5903 8.92497 63.4999 9.5 63.4999L9.61723 63.4999C12.2763 63.5001 14.9231 63.5002 17.2186 62.9601C19.6355 62.3914 21.7666 61.2036 23.272 58.7949C24.195 57.3182 24.1223 55.8501 23.6699 54.5877C23.29 53.5275 22.6077 52.5279 22.0731 51.7446C22.0236 51.6721 21.9753 51.6014 21.9287 51.5327C21.2936 50.5967 20.9552 50.0187 20.874 49.5741C20.8443 49.4112 20.8622 49.3203 20.8953 49.2438C20.9346 49.1529 21.0492 48.963 21.4 48.6999C23.869 46.8482 24.9194 43.8033 24.6153 41.1422C24.3051 38.428 22.513 35.8438 19.1493 35.5074C15.728 35.1653 13.6476 37.5127 11.9542 39.9587C11.4226 40.7266 10.9101 41.5284 10.3841 42.3515L10.384 42.3518L10.3839 42.3519C9.11827 44.3323 7.77403 46.4357 5.89427 48.4864C5.79454 48.5952 5.56749 48.7383 5.07153 48.8013C4.58217 48.8636 3.98264 48.8264 3.35215 48.7219C2.73293 48.6192 2.14938 48.4628 1.71532 48.3293C1.50031 48.2632 1.32677 48.2042 1.2096 48.1627L1.17999 48.1522C3.41501 38.0485 8.70652 29.0935 16.0349 22.3067C17.592 25.0386 19.4469 27.3812 21.8553 29.0221C24.7731 31.01 28.3516 31.8662 32.8519 31.3607C33.293 31.3111 33.6033 31.6335 33.6219 31.9338C33.7551 34.0832 33.959 35.8788 34.5186 37.3387C35.117 38.8997 36.0971 40.0238 37.6025 40.8813C37.8431 41.0184 38.0141 41.2283 38.0946 41.4374C38.1708 41.6356 38.1598 41.8064 38.091 41.9508C37.1157 43.9972 36.554 45.6144 36.6441 47.3C36.7328 48.9594 37.448 50.4783 38.4233 52.3131C38.5448 52.5418 38.4781 52.7794 38.3367 52.8997C35.3094 55.4751 32.4105 57.4034 29.8188 59.1275C28.762 59.8305 27.7563 60.4995 26.8137 61.1646C23.7388 63.3342 21.0129 65.6679 20.8289 69.1453C20.7203 71.1981 22.3632 72.5596 23.9295 72.8923C26.6107 73.4618 28.5722 73.4506 30.4126 72.8808C32.014 72.385 33.4432 71.4783 35.0353 70.4682C35.1865 70.3723 35.3391 70.2754 35.4936 70.1779C36.0857 69.8039 37.0002 69.9044 37.6362 70.5883C38.6014 71.6261 39.9372 72.8992 41.3598 73.6982C42.7294 74.4674 44.7475 75.0797 46.4603 73.6523C47.4901 72.7941 48.2293 71.4583 48.8143 70.1522C49.3301 69.0004 49.8021 67.6876 50.2546 66.4291C50.3279 66.2252 50.4007 66.0228 50.4731 65.8227C51.0066 64.3476 51.5229 62.9841 52.1029 61.8744C52.6996 60.7325 53.2528 60.0832 53.7442 59.8024C54.2667 59.5038 54.9075 59.4074 55.8123 59.4217C56.1459 59.4269 56.4715 59.4451 56.8297 59.4652C56.9666 59.4728 57.1082 59.4807 57.2568 59.4883C57.7674 59.5143 58.3346 59.534 58.9091 59.4969C60.0857 59.421 61.3794 59.101 62.519 58.0611C63.625 57.0517 64.417 55.5166 64.9552 53.3638C66.1054 48.7631 64.4667 45.3156 62.5814 42.3251C62.1555 41.6495 61.7495 41.0431 61.3547 40.4532L61.3546 40.4532C60.8225 39.6583 60.3105 38.8935 59.797 38.0301C58.957 36.6177 58.2941 35.2137 57.9667 33.6857C57.88 33.2811 57.9511 32.7263 58.3719 31.9612C58.7943 31.1932 59.5074 30.3312 60.4905 29.4034C62.4546 27.5496 65.2633 25.6479 68.1992 23.9172C71.1193 22.1959 74.0945 20.6847 76.3456 19.6017C77.4696 19.061 78.4094 18.6287 79.0668 18.3322C79.0726 18.3296 79.0784 18.327 79.0841 18.3245C91.748 27.3957 100 42.2342 100 59C100 72.5169 94.6364 84.7811 85.9213 93.7802ZM76.148 16.3739C75.8045 16.5352 75.4356 16.7104 75.045 16.8983C72.7493 18.0028 69.6932 19.5541 66.6758 21.3328C63.6742 23.1021 60.6391 25.1379 58.4314 27.2216C57.3285 28.2625 56.3736 29.3693 55.7433 30.5154C55.1114 31.6643 54.745 32.9689 55.0333 34.3143C55.4559 36.2863 56.293 38.0073 57.2186 39.5636C57.7418 40.4433 58.3625 41.3746 58.9509 42.2575L58.9509 42.2576C59.3422 42.8446 59.7191 43.4102 60.0436 43.9249C61.7833 46.6844 62.8946 49.2369 62.0448 52.6362C61.583 54.4834 61 55.3858 60.4967 55.8452C60.0268 56.274 59.4768 56.454 58.7159 56.5031C58.3217 56.5285 57.8967 56.517 57.4092 56.4922C57.3375 56.4885 57.2635 56.4845 57.1875 56.4803C57.1421 56.4778 57.096 56.4752 57.0493 56.4726H57.0493C56.6727 56.4515 56.2585 56.4283 55.8596 56.4221C54.78 56.4051 53.4833 56.4962 52.2558 57.1976C50.9972 57.9168 50.1129 59.205 49.444 60.485C48.7583 61.7971 48.1809 63.3399 47.6519 64.8023C47.5757 65.0132 47.5004 65.2223 47.4259 65.4294C46.9697 66.6972 46.5416 67.8871 46.0763 68.926C45.5207 70.1667 45.0099 70.9559 44.5397 71.3477C44.322 71.5291 43.8921 71.6796 42.8289 71.0825C41.8188 70.5152 40.7371 69.5173 39.833 68.5452C38.3776 66.9803 35.8961 66.3755 33.8917 67.6414L33.5352 67.8667C31.8164 68.9539 30.7271 69.6429 29.5253 70.015C28.3292 70.3853 26.9198 70.4605 24.5528 69.9577C24.2991 69.9038 24.0909 69.777 23.9649 69.6392C23.8488 69.5123 23.8195 69.4017 23.8247 69.3038C23.9235 67.4374 25.3615 65.8609 28.5433 63.6158C29.3781 63.0267 30.3165 62.4023 31.3308 61.7275L31.3309 61.7274L31.3309 61.7273C33.9646 59.975 37.1096 57.8823 40.2806 55.1848C41.5503 54.1046 41.8203 52.3124 41.0723 50.9051C40.0812 49.0405 39.689 48.059 39.6398 47.1399C39.5921 46.247 39.8622 45.2074 40.7991 43.2415C41.7383 41.2709 40.685 39.1847 39.0874 38.2746C38.1592 37.7458 37.6595 37.151 37.3199 36.265C36.9415 35.2779 36.7493 33.8982 36.6161 31.7483C36.4827 29.5944 34.5193 28.1545 32.517 28.3794C28.6102 28.8183 25.7769 28.0638 23.5445 26.5429C21.5035 25.1524 19.8429 23.039 18.3471 20.2928C26.9678 13.2349 37.9894 9 50 9C59.5851 9 68.5403 11.6971 76.148 16.3739ZM5.94402 67.7536L0.971681 68.8585C0.334332 65.6713 0 62.3747 0 59C0 56.3217 0.210581 53.6926 0.616089 51.1283C0.684247 51.1503 0.756854 51.1732 0.833508 51.1968C1.35019 51.3557 2.07003 51.5502 2.8614 51.6814C3.6415 51.8108 4.55977 51.8906 5.44997 51.7774C6.33356 51.665 7.34783 51.3403 8.10573 50.5135C10.1733 48.258 11.7494 45.7933 13.0574 43.7477L13.0574 43.7476C13.5453 42.9847 13.9959 42.28 14.4208 41.6663C16.1024 39.2373 17.272 38.3347 18.8507 38.4926C20.487 38.6562 21.4449 39.822 21.6347 41.4828C21.8306 43.1967 21.131 45.1517 19.6 46.2999C18.9508 46.7869 18.4404 47.3626 18.1418 48.0529C17.837 48.7577 17.8042 49.4637 17.9229 50.1133C18.1376 51.2886 18.8874 52.3936 19.4391 53.2066L19.4463 53.2172L19.5386 53.3531C20.1324 54.2273 20.6015 54.918 20.8457 55.5997C21.0652 56.2123 21.055 56.6817 20.728 57.2049C19.7334 58.7963 18.3645 59.6085 16.5314 60.0398C14.6106 60.4918 12.3016 60.4999 9.5 60.4999C8.60244 60.4999 7.76976 60.6424 7.0805 61.0254C6.33871 61.4377 5.86226 62.0759 5.66351 62.8257C5.48006 63.5178 5.55704 64.2071 5.69691 64.7749C5.8398 65.3549 6.07643 65.9202 6.32898 66.4232C6.46896 66.702 6.4796 67.0481 6.37159 67.3315C6.26939 67.5996 6.10673 67.7174 5.94402 67.7536ZM11.0836 71.5589C11.8795 71.329 12.7111 71.7878 12.9411 72.5836C13.5562 74.7126 13.93 75.5312 14.7169 76.623C15.2013 77.295 15.0491 78.2325 14.377 78.7169C13.705 79.2013 12.7675 79.0491 12.2831 78.377C11.2181 76.8993 10.7245 75.7198 10.0589 73.4164C9.82899 72.6205 10.2878 71.7889 11.0836 71.5589ZM18.7981 81.8039C18.2099 81.2205 17.2601 81.2245 16.6768 81.8127C16.0934 82.4009 16.0974 83.3506 16.6856 83.934L16.7757 84.0234L16.9781 84.2247L16.9783 84.2248L16.9785 84.2251L16.9788 84.2254C17.6293 84.8724 18.1294 85.3698 18.6185 85.7596C19.2372 86.2528 19.8276 86.5711 20.6637 86.932C21.4244 87.2602 22.3071 86.9097 22.6353 86.1491C22.9636 85.3884 22.613 84.5057 21.8524 84.1775C21.1569 83.8773 20.8263 83.683 20.4884 83.4137C20.137 83.1336 19.769 82.7681 19.0801 82.0838L18.7981 81.8039ZM34.1171 84.0994C34.4901 84.8391 34.1927 85.7411 33.453 86.1141C33.3636 86.1592 33.2738 86.205 33.1831 86.2514L33.183 86.2514C32.6198 86.5392 32.0255 86.8428 31.3068 87.0645C30.448 87.3293 29.4611 87.4693 28.0505 87.5073C27.2224 87.5295 26.533 86.8763 26.5107 86.0481C26.4884 85.22 27.1417 84.5306 27.9698 84.5083C29.2255 84.4746 29.917 84.3537 30.4226 84.1977C30.8763 84.0578 31.2228 83.8817 31.7935 83.5918C31.8896 83.543 31.992 83.4909 32.1024 83.4353C32.8422 83.0623 33.7442 83.3597 34.1171 84.0994ZM37.9191 79.1296C37.3261 79.708 37.3142 80.6577 37.8926 81.2508C38.471 81.8438 39.4207 81.8557 40.0137 81.2773C40.8199 80.4911 41.4892 80.0674 42.1768 79.8654C42.8628 79.6639 43.7236 79.6373 44.9872 79.9222C45.7953 80.1044 46.5982 79.597 46.7804 78.7888C46.9626 77.9807 46.4552 77.1779 45.647 76.9957C44.0609 76.638 42.6541 76.5984 41.3311 76.9871C40.0096 77.3753 38.9284 78.1453 37.9191 79.1296ZM60.0035 75.8834C60.3376 76.6414 59.9938 77.5268 59.2357 77.8608C57.4046 78.6677 54.9756 79.2164 52.7272 79.0026C51.9025 78.9241 51.2975 78.192 51.3759 77.3673C51.4543 76.5426 52.1865 75.9376 53.0112 76.0161C54.6448 76.1714 56.5576 75.7626 58.026 75.1155C58.7841 74.7815 59.6695 75.1253 60.0035 75.8834ZM73.7077 70.7538C74.124 70.0376 73.8809 69.1195 73.1647 68.7032C72.4484 68.2868 71.5303 68.53 71.114 69.2462C70.3801 70.5089 68.6804 71.5351 66.8904 71.9826C66.0867 72.1835 65.598 72.9979 65.7989 73.8016C65.9999 74.6053 66.8143 75.094 67.618 74.893C69.8279 74.3405 72.4098 72.9869 73.7077 70.7538ZM81.7892 56.6423C82.539 56.9944 82.8614 57.8878 82.5093 58.6376L80.0306 63.9155C79.6785 64.6654 78.7851 64.9878 78.0353 64.6356C77.2854 64.2835 76.963 63.3901 77.3152 62.6403L79.7938 57.3624C80.146 56.6125 81.0393 56.2901 81.7892 56.6423Z" fill="#FF7268"/>
<path fill-rule="evenodd" clip-rule="evenodd" d="M103.6 23.104C103.6 26.7307 102.775 30.1132 101.306 33.0972C97.0955 42.3607 89.4512 51.6079 80.8003 61.2V46.2V45.6H80.8C80.8 45.6 80.7999 45.6 80.7999 45.6V46.2V61.2C72.0683 51.6445 64.5901 42.4313 60.3468 33.2032C58.8443 30.1933 58 26.7737 58 23.104C58 10.344 68.2079 0 80.8 0C93.3921 0 103.6 10.344 103.6 23.104Z" fill="white"/>
<circle cx="81" cy="23" r="10" fill="white"/>
<path fill-rule="evenodd" clip-rule="evenodd" d="M98.0881 31.581C99.3128 29.0943 100 26.2756 100 23.2533C100 12.62 91.4934 4 81 4C70.5066 4 62 12.62 62 23.2533C62 26.3114 62.7036 29.1611 63.9557 31.6693C67.4918 39.3594 73.7236 47.0371 80.9999 55V42.5V42H81H81.0002V42.5V55C88.2093 47.0066 94.5796 39.3006 98.0881 31.581ZM81 30C85.4183 30 89 26.4183 89 22C89 17.5817 85.4183 14 81 14C76.5817 14 73 17.5817 73 22C73 26.4183 76.5817 30 81 30Z" fill="#EA6060"/>
<path d="M114.925 81L115.125 64.75H119.3L123.85 76.725H123.95L128.425 64.75H132.3L132.475 81H129.1L128.925 68.7H128.85L124.325 81H121.75L117.225 68.7H117.15L117.075 81H114.925ZM135.911 81V68.5H139.236V76.725L143.811 68.5H146.711V81H143.386V72.275L138.511 81H135.911ZM149.705 68.5H152.38L152.83 69.625H152.905C152.905 69.5917 153.047 69.4583 153.33 69.225C153.613 68.975 154.005 68.75 154.505 68.55C155.005 68.3333 155.605 68.225 156.305 68.225C157.788 68.225 158.955 68.7917 159.805 69.925C160.655 71.0583 161.08 72.5833 161.08 74.5C161.08 75.85 160.88 77.0417 160.48 78.075C160.08 79.0917 159.505 79.8833 158.755 80.45C158.022 81 157.147 81.275 156.13 81.275C155.48 81.275 154.93 81.2 154.48 81.05C154.03 80.9167 153.688 80.775 153.455 80.625C153.222 80.4583 153.105 80.3583 153.105 80.325H153.03V87.25L149.705 87.35V68.5ZM154.88 79.375C155.513 79.375 156.013 79.225 156.38 78.925C156.763 78.625 157.047 78.1333 157.23 77.45C157.413 76.75 157.505 75.7917 157.505 74.575C157.505 73.425 157.413 72.5333 157.23 71.9C157.063 71.25 156.805 70.8 156.455 70.55C156.122 70.3 155.68 70.175 155.13 70.175C154.73 70.175 154.372 70.25 154.055 70.4C153.755 70.55 153.513 70.7083 153.33 70.875C153.163 71.0417 153.063 71.1667 153.03 71.25V78.55C153.063 78.6 153.147 78.6917 153.28 78.825C153.413 78.9417 153.613 79.0667 153.88 79.2C154.163 79.3167 154.497 79.375 154.88 79.375Z" fill="black"/>
<path d="M114.5 104V91.5H124.85V104H121.525V93.325H117.825V104H114.5ZM128.879 110.525C128.496 110.525 128.154 110.492 127.854 110.425C127.571 110.375 127.354 110.317 127.204 110.25C127.054 110.2 126.962 110.167 126.929 110.15L127.204 108.2C127.271 108.233 127.437 108.283 127.704 108.35C127.971 108.433 128.237 108.475 128.504 108.475C129.254 108.475 129.862 108.175 130.329 107.575C130.796 106.992 131.312 105.967 131.879 104.5L126.554 91.5H130.579L133.629 100.4L136.204 91.5H138.279L133.954 104.275C133.437 105.692 132.946 106.842 132.479 107.725C132.029 108.608 131.512 109.292 130.929 109.775C130.346 110.275 129.662 110.525 128.879 110.525ZM142.29 104V93.325H138.69L138.665 91.5H149.19V93.325H145.59V104H142.29ZM156.05 104.275C154.2 104.275 152.758 103.767 151.725 102.75C150.708 101.717 150.2 100.125 150.2 97.975C150.2 95.8083 150.7 94.15 151.7 93C152.7 91.8333 154.05 91.25 155.75 91.25C157.3 91.25 158.5 91.7417 159.35 92.725C160.216 93.6917 160.65 95.0833 160.65 96.9C160.65 97.3167 160.616 97.6667 160.55 97.95C160.5 98.2333 160.466 98.4083 160.45 98.475H153.725C153.741 99.975 153.958 101.042 154.375 101.675C154.808 102.292 155.5 102.6 156.45 102.6C157.016 102.6 157.516 102.483 157.95 102.25C158.383 102 158.725 101.733 158.975 101.45C159.225 101.15 159.35 100.983 159.35 100.95L160.475 101.825C160.475 101.892 160.3 102.133 159.95 102.55C159.616 102.967 159.116 103.358 158.45 103.725C157.8 104.092 157 104.275 156.05 104.275ZM157.55 96.85V96.275C157.55 95.0083 157.416 94.125 157.15 93.625C156.883 93.1083 156.416 92.85 155.75 92.85C155.283 92.85 154.908 92.9667 154.625 93.2C154.358 93.4333 154.15 93.8417 154 94.425C153.85 94.9917 153.758 95.8 153.725 96.85H157.55ZM162.815 104V91.5H166.14V102.175H169.09V91.5H172.415V102.175H175.34V91.5H178.665V104H162.815ZM186.763 104.275C184.913 104.275 183.471 103.767 182.438 102.75C181.421 101.717 180.913 100.125 180.913 97.975C180.913 95.8083 181.413 94.15 182.413 93C183.413 91.8333 184.763 91.25 186.463 91.25C188.013 91.25 189.213 91.7417 190.063 92.725C190.929 93.6917 191.363 95.0833 191.363 96.9C191.363 97.3167 191.329 97.6667 191.263 97.95C191.213 98.2333 191.179 98.4083 191.163 98.475H184.438C184.454 99.975 184.671 101.042 185.088 101.675C185.521 102.292 186.213 102.6 187.163 102.6C187.729 102.6 188.229 102.483 188.663 102.25C189.096 102 189.438 101.733 189.688 101.45C189.938 101.15 190.063 100.983 190.063 100.95L191.188 101.825C191.188 101.892 191.013 102.133 190.663 102.55C190.329 102.967 189.829 103.358 189.163 103.725C188.513 104.092 187.713 104.275 186.763 104.275ZM188.263 96.85V96.275C188.263 95.0083 188.129 94.125 187.863 93.625C187.596 93.1083 187.129 92.85 186.463 92.85C185.996 92.85 185.621 92.9667 185.338 93.2C185.071 93.4333 184.863 93.8417 184.713 94.425C184.563 94.9917 184.471 95.8 184.438 96.85H188.263ZM198.703 104.275C196.787 104.275 195.312 103.725 194.278 102.625C193.262 101.525 192.753 99.925 192.753 97.825C192.753 95.7917 193.287 94.1833 194.353 93C195.42 91.8167 196.895 91.225 198.778 91.225C199.295 91.225 199.82 91.3 200.353 91.45C200.903 91.5833 201.362 91.7333 201.728 91.9C202.095 92.05 202.328 92.15 202.428 92.2L202.103 93.8C202.02 93.75 201.812 93.6583 201.478 93.525C201.145 93.375 200.762 93.2333 200.328 93.1C199.895 92.9667 199.503 92.9 199.153 92.9C198.52 92.9 198.003 93.0333 197.603 93.3C197.203 93.5667 196.895 94.0583 196.678 94.775C196.462 95.475 196.353 96.475 196.353 97.775C196.353 99.625 196.587 100.892 197.053 101.575C197.52 102.258 198.187 102.6 199.053 102.6C199.637 102.6 200.137 102.475 200.553 102.225C200.987 101.958 201.32 101.683 201.553 101.4C201.787 101.1 201.903 100.925 201.903 100.875L203.078 101.625C203.078 101.725 202.928 102 202.628 102.45C202.328 102.883 201.853 103.3 201.203 103.7C200.553 104.083 199.72 104.275 198.703 104.275ZM207.061 104V93.325H203.461L203.436 91.5H213.961V93.325H210.361V104H207.061ZM215.745 91.5H220.52C222.287 91.5 223.57 91.8083 224.37 92.425C225.17 93.025 225.57 93.8333 225.57 94.85C225.57 96.1 224.837 97.0167 223.37 97.6C224.103 97.8 224.72 98.1333 225.22 98.6C225.737 99.05 225.995 99.6333 225.995 100.35C225.995 101.517 225.578 102.417 224.745 103.05C223.912 103.683 222.52 104 220.57 104H215.745V91.5ZM220.895 97.075C220.895 97.1083 221.02 97.075 221.27 96.975C221.52 96.8583 221.745 96.65 221.945 96.35C222.145 96.0333 222.245 95.5917 222.245 95.025C222.245 93.675 221.653 93 220.47 93H219.07V97.075H220.895ZM220.495 102.5C221.228 102.5 221.762 102.292 222.095 101.875C222.428 101.458 222.595 100.9 222.595 100.2C222.595 98.9 221.953 98.25 220.67 98.25H219.07V102.5H220.495ZM228.221 104V91.5H231.546V99.725L236.121 91.5H239.021V104H235.696V95.275L230.821 104H228.221ZM242.015 104V91.5H245.34V99.725L249.915 91.5H252.815V104H249.49V95.275L244.615 104H242.015ZM247.565 89.925C245.831 89.925 244.74 89.5583 244.29 88.825C243.84 88.075 243.615 87.4167 243.615 86.85L246.215 86.625V86.925C246.198 86.9583 246.173 87.025 246.14 87.125C246.123 87.2083 246.115 87.3083 246.115 87.425C246.115 87.6917 246.223 87.925 246.44 88.125C246.656 88.3083 247.031 88.4 247.565 88.4C248.115 88.4 248.498 88.3083 248.715 88.125C248.931 87.925 249.04 87.6917 249.04 87.425C249.04 87.3083 249.023 87.2083 248.99 87.125C248.973 87.025 248.956 86.9583 248.94 86.925V86.625L251.54 86.85C251.54 87.4167 251.306 88.075 250.84 88.825C250.39 89.5583 249.298 89.925 247.565 89.925Z" fill="black"/>
</svg>
