<svg width="204" height="88" viewBox="0 0 204 88" fill="none" xmlns="http://www.w3.org/2000/svg">
<ellipse cx="39.5832" cy="46.2983" rx="39.5832" ry="39.2358" fill="#E5ECE9"/>
<path fill-rule="evenodd" clip-rule="evenodd" d="M66.0975 75.4317C59.0796 81.711 49.7818 85.5342 39.5832 85.5342C34.1868 85.5342 29.0427 84.4638 24.3551 82.5256C24.2278 81.6326 24.2935 80.9177 24.4757 80.3468C24.7038 79.6319 25.1408 79.058 25.78 78.5955C27.1113 77.6323 29.3117 77.1664 32.0308 77.2176C33.5226 77.2457 34.7644 76.1366 34.995 74.7162C35.6135 70.9077 37.3523 69.5381 39.0327 69.3347C40.8817 69.1109 43.2958 70.1893 45.3532 72.5875C46.0179 73.3623 46.9874 73.7098 47.8905 73.6971C48.796 73.6844 49.7708 73.3053 50.395 72.4513C51.2594 71.2686 52.452 69.8663 53.8873 68.7389C55.3256 67.6092 56.9366 66.8104 58.6562 66.7039C61.0833 66.5535 62.93 68.4203 64.2781 70.8541C64.9259 72.0237 65.3944 73.2163 65.7017 74.1241C65.8546 74.5758 65.9658 74.9517 66.0381 75.2119C66.0622 75.2987 66.082 75.3724 66.0975 75.4317ZM68.0175 73.5944L67.9904 73.5122C67.9745 73.4643 67.9582 73.4155 67.9414 73.366C67.6054 72.3732 67.0842 71.0401 66.3465 69.7084C64.9237 67.1396 62.4162 64.1019 58.51 64.3439C56.1484 64.4902 54.0891 65.5737 52.4268 66.8794C50.7615 68.1873 49.4235 69.7734 48.486 71.056C48.3775 71.2045 48.1616 71.3285 47.8573 71.3328C47.5507 71.3371 47.2916 71.2154 47.1478 71.0479C44.805 68.3171 41.6765 66.6329 38.7486 66.9873C35.6521 67.3621 33.3798 69.9115 32.6611 74.3371C32.6104 74.649 32.3383 74.8585 32.0754 74.8535C29.1778 74.7989 26.3483 75.2659 24.394 76.6798C23.3905 77.4058 22.6208 78.3815 22.2231 79.628C22.0436 80.1904 21.9455 80.7899 21.9276 81.4246C11.8595 76.4429 4.23353 67.3333 1.30622 56.3326L5.20977 55.4728C6.24345 55.2451 6.93476 54.4979 7.24971 53.6694C7.56002 52.8531 7.54063 51.8853 7.11765 51.0439C6.96736 50.745 6.86226 50.4765 6.80804 50.2538C6.76845 50.0912 6.76567 49.9927 6.76878 49.9438C6.84851 49.9056 7.06488 49.8347 7.52075 49.8347L7.61261 49.8347H7.61268C9.71846 49.8348 11.8123 49.8349 13.6278 49.4115C15.5376 48.966 17.224 48.0355 18.4166 46.1442C19.1494 44.982 19.0918 43.825 18.7325 42.8311C18.4313 41.9978 17.8905 41.2125 17.4674 40.5981C17.4282 40.5411 17.39 40.4856 17.3531 40.4317C16.8497 39.6964 16.5834 39.2446 16.5197 38.8989C16.4966 38.7737 16.5106 38.7055 16.5357 38.6481C16.566 38.5787 16.656 38.4299 16.9344 38.2229C18.8884 36.7703 19.7232 34.3779 19.4817 32.2832C19.235 30.1442 17.8118 28.1211 15.1582 27.8581C12.4588 27.5905 10.8138 29.4264 9.47075 31.3493C9.04964 31.9522 8.64383 32.5817 8.22731 33.2277L8.22725 33.2278C7.2254 34.7817 6.16154 36.4318 4.67359 38.0408C4.59417 38.1267 4.41234 38.2401 4.01683 38.29C3.62736 38.3391 3.15108 38.3097 2.65121 38.2275C2.16015 38.1468 1.69754 38.0239 1.35357 37.9191C1.18316 37.8671 1.0456 37.8208 0.952708 37.7882L0.934978 37.7819C2.70508 29.8541 6.89451 22.8277 12.6962 17.5027C13.9312 19.6522 15.4024 21.4948 17.3129 22.7839C19.6231 24.3426 22.4554 25.0122 26.0182 24.6132C26.3637 24.5745 26.6079 24.8271 26.6227 25.0641C26.7281 26.7482 26.8896 28.1572 27.3325 29.3037C27.8062 30.5297 28.5812 31.4114 29.7686 32.0834C29.959 32.1912 30.0944 32.357 30.158 32.5224C30.2182 32.679 30.2094 32.8143 30.1544 32.9288C29.3868 34.5275 28.9435 35.7956 29.0151 37.1189C29.0855 38.4211 29.6504 39.6121 30.4186 41.0455C30.5157 41.2267 30.4626 41.4152 30.3498 41.5102C27.9555 43.5282 25.6629 45.04 23.6131 46.3916C22.7769 46.9429 21.9812 47.4676 21.2355 47.9891C18.8059 49.6883 16.645 51.519 16.4951 54.2506C16.406 55.8739 17.7096 56.9445 18.9419 57.2043C21.0692 57.6527 22.6222 57.6432 24.0791 57.1945C25.3427 56.8054 26.4723 56.0951 27.7324 55.3026L27.7325 55.3026C27.8167 55.2496 27.9015 55.1963 27.987 55.1426C28.0279 55.117 28.069 55.0913 28.1102 55.0655C28.5755 54.7742 29.2913 54.8534 29.7914 55.3872C30.5552 56.2027 31.6139 57.2048 32.7412 57.8343C33.8255 58.4399 35.4194 58.9222 36.7736 57.8035C37.5889 57.1301 38.1746 56.0811 38.6381 55.0553C39.0466 54.1511 39.4205 53.1205 39.7787 52.1331L39.7787 52.1329C39.8367 51.9729 39.8943 51.8141 39.9516 51.6571C40.374 50.4996 40.7825 49.4303 41.2413 48.5602C41.713 47.6654 42.1506 47.1557 42.5408 46.9347C42.957 46.699 43.4672 46.6232 44.1848 46.6345C44.4493 46.6386 44.7075 46.6529 44.9913 46.6686C45.0995 46.6746 45.2115 46.6808 45.3289 46.6867C45.733 46.7071 46.1813 46.7225 46.6352 46.6935C47.5638 46.6341 48.5855 46.384 49.4866 45.5689C50.3625 44.7766 50.9904 43.5706 51.417 41.8792C52.3292 38.2626 51.0289 35.553 49.5365 33.2065C49.1991 32.676 48.8776 32.2001 48.565 31.7372C48.1439 31.1136 47.7388 30.5138 47.3323 29.8363C46.6674 28.7282 46.1433 27.6276 45.8846 26.4306C45.817 26.1181 45.8716 25.6864 46.2042 25.0869C46.5381 24.4851 47.1023 23.809 47.8808 23.0807C49.4359 21.6258 51.6597 20.1333 53.9843 18.7751C56.2962 17.4242 58.6518 16.2382 60.4341 15.3883C61.324 14.9639 62.0681 14.6247 62.5886 14.392C62.5962 14.3886 62.6038 14.3852 62.6113 14.3819C72.635 21.5004 79.1664 33.1433 79.1664 46.2983C79.1664 56.907 74.9188 66.5322 68.0175 73.5944ZM60.2802 12.8468C60.0109 12.9722 59.722 13.1082 59.4163 13.254C57.599 14.1206 55.1799 15.3379 52.7914 16.7335C50.4154 18.1217 48.013 19.719 46.2654 21.354C45.3925 22.1706 44.6362 23.0394 44.1366 23.9396C43.6359 24.8421 43.3441 25.8695 43.5734 26.9302C43.9084 28.4797 44.5718 29.8314 45.3047 31.0529C45.719 31.7433 46.2106 32.4745 46.6766 33.1675C46.9863 33.6281 47.2846 34.0719 47.5413 34.4755C48.9186 36.641 49.7955 38.6397 49.1243 41.3009C48.7592 42.7484 48.2986 43.4551 47.9004 43.8154C47.5274 44.1528 47.0895 44.2951 46.4843 44.3338C46.1712 44.3538 45.834 44.3447 45.448 44.3252C45.3571 44.3206 45.2616 44.3153 45.1627 44.3098C44.8647 44.2933 44.5372 44.2751 44.2217 44.2702C43.3684 44.2569 42.3448 44.3283 41.3755 44.8773C40.3803 45.4409 39.6799 46.4517 39.1496 47.4574C38.6064 48.4877 38.1491 49.699 37.7303 50.8466C37.6699 51.0121 37.6104 51.1763 37.5514 51.3388L37.5513 51.3389C37.1902 52.3337 36.8514 53.267 36.4833 54.0817C36.0438 55.0545 35.6399 55.6731 35.2677 55.9805C35.09 56.1273 34.7403 56.2425 33.8941 55.7699C33.0909 55.3213 32.2323 54.5342 31.517 53.7707C30.3722 52.5486 28.43 52.0759 26.8558 53.0611L26.5503 53.2524L26.5503 53.2525C25.1957 54.1017 24.334 54.6419 23.3833 54.9347C22.4314 55.2278 21.3109 55.2871 19.4297 54.8906C19.229 54.8483 19.0645 54.7483 18.9653 54.6402C18.8741 54.5408 18.852 54.4552 18.8561 54.3802C18.936 52.9243 20.0708 51.6891 22.5907 49.9268C23.2515 49.4646 23.9942 48.9748 24.7969 48.4453C26.8797 47.0716 29.3663 45.4316 31.8737 43.3182C32.8848 42.4659 33.0999 41.043 32.5028 39.9286C31.7223 38.4723 31.4149 37.7065 31.3762 36.9911C31.3386 36.2968 31.5494 35.4865 32.286 33.9523C33.0336 32.3952 32.2002 30.7427 30.9333 30.0256C30.1994 29.6102 29.8056 29.1437 29.5382 28.4515C29.24 27.6796 29.088 26.6003 28.9826 24.9165C28.8766 23.222 27.3328 22.0867 25.7551 22.2634C22.6547 22.6105 20.4061 22.0184 18.6354 20.8238C17.0197 19.7336 15.7057 18.0774 14.5225 15.926C21.3475 10.3864 30.0737 7.0625 39.5832 7.0625C47.17 7.0625 54.2582 9.17819 60.2802 12.8468ZM4.70112 53.1636L0.768253 54.0299C0.264292 51.5303 -6.10352e-05 48.9449 -6.10352e-05 46.2983C-6.10352e-05 44.1981 0.166415 42.1364 0.487001 40.1255C0.542397 40.1433 0.601553 40.1618 0.664119 40.1809C1.07281 40.3055 1.64205 40.4579 2.26771 40.5607C2.88456 40.6621 3.60986 40.7245 4.31253 40.6359C5.00917 40.5481 5.81005 40.2945 6.40959 39.6462C8.04664 37.876 9.29466 35.9414 10.3302 34.3361L10.3303 34.3361L10.3303 34.336C10.7165 33.7374 11.0731 33.1846 11.4093 32.7033C12.7381 30.8007 13.666 30.0863 14.9249 30.2111C16.2297 30.3404 16.9835 31.26 17.1327 32.5541C17.287 33.8925 16.7364 35.4237 15.5237 36.3252C15.0105 36.7068 14.6057 37.1588 14.3685 37.7024C14.126 38.2581 14.0999 38.8152 14.1943 39.3275C14.3648 40.2524 14.9593 41.1208 15.3954 41.7579L15.4019 41.7674L15.4745 41.8733L15.4745 41.8734C15.9451 42.5601 16.3159 43.1012 16.5088 43.6349C16.6814 44.1124 16.6733 44.4757 16.4165 44.883C15.6299 46.1305 14.5455 46.7694 13.0907 47.1087C11.5681 47.4638 9.73818 47.4702 7.52075 47.4702C6.81519 47.4702 6.16164 47.5806 5.61979 47.8766C5.03698 48.195 4.65581 48.6907 4.49365 49.2804C4.34394 49.8248 4.40203 50.3673 4.51061 50.8132C4.62147 51.2685 4.80688 51.7118 5.00505 52.106C5.11655 52.3278 5.12523 52.6036 5.03949 52.8291C4.95839 53.0425 4.82951 53.1353 4.70112 53.1636ZM8.77321 56.1493C9.40007 55.9666 10.0564 56.3266 10.2391 56.9535C10.7258 58.6232 11.0213 59.2644 11.6436 60.1203C12.0276 60.6484 11.9108 61.3878 11.3827 61.7718C10.8546 62.1558 10.1152 62.039 9.73118 61.5109C8.88742 60.3505 8.49623 59.4238 7.96904 57.6152C7.78631 56.9884 8.14635 56.3321 8.77321 56.1493ZM14.8788 64.1929C14.4123 63.7344 13.6611 63.7368 13.2009 64.1984C12.7407 64.66 12.7457 65.4059 13.2122 65.8644C13.2921 65.943 13.3692 66.019 13.4438 66.0926L13.4439 66.0926C13.959 66.6005 14.3554 66.9913 14.7429 67.2975C15.2332 67.6849 15.7009 67.9348 16.363 68.218C16.9655 68.4757 17.6627 68.2004 17.9202 67.603C18.1777 67.0056 17.898 66.3123 17.2954 66.0546C16.7448 65.8191 16.4835 65.6667 16.2165 65.4558C15.9386 65.2362 15.6476 64.9497 15.1023 64.4129L15.1021 64.4127L15.102 64.4126L15.102 64.4125L14.8788 64.1929ZM27.0079 65.9949C27.2989 66.5785 27.0606 67.2885 26.4757 67.5808C26.4049 67.6162 26.3338 67.6522 26.262 67.6885C25.816 67.9144 25.346 68.1524 24.7777 68.3261C24.099 68.5336 23.3189 68.6434 22.2029 68.6731C21.5499 68.6905 21.0078 68.1758 20.9921 67.5233C20.9764 66.8709 21.4932 66.3279 22.1462 66.3105C23.1411 66.284 23.6896 66.189 24.0911 66.0663C24.4509 65.9563 24.7258 65.8178 25.1775 65.5904C25.2536 65.552 25.3347 65.5112 25.422 65.4675C26.0069 65.1753 26.7169 65.4114 27.0079 65.9949ZM30.027 62.0878C29.5572 62.542 29.5441 63.2903 29.9976 63.7594C30.4512 64.2284 31.1998 64.2405 31.6696 63.7863C32.3074 63.1698 32.8378 62.8365 33.3842 62.6774C33.9301 62.5184 34.6143 62.4978 35.6164 62.7218C36.2535 62.8641 36.8861 62.4631 37.0295 61.8259C37.1728 61.1887 36.7725 60.5568 36.1354 60.4144C34.8814 60.1342 33.7705 60.1033 32.7258 60.4075C31.6818 60.7116 30.8265 61.3149 30.027 62.0878ZM47.5013 59.5475C47.7615 60.1451 47.4865 60.8418 46.887 61.1036C45.4378 61.7366 43.5165 62.1665 41.7393 61.999C41.089 61.9377 40.6133 61.3614 40.677 60.7119C40.7406 60.0624 41.3194 59.5855 41.9698 59.6468C43.2659 59.769 44.7819 59.4475 45.9448 58.9396C46.5442 58.6778 47.2411 58.95 47.5013 59.5475ZM58.3453 55.5292C58.6754 54.9663 58.4862 54.2419 57.9227 53.9111C57.3592 53.5803 56.6348 53.7684 56.3048 54.3313C55.724 55.3216 54.377 56.1285 52.9566 56.4805C52.3229 56.6375 51.9374 57.2785 52.0954 57.9122C52.2533 58.5459 52.8951 58.9324 53.5287 58.7754C55.2749 58.3426 57.3175 57.282 58.3453 55.5292ZM64.7491 44.449C65.3422 44.7278 65.5971 45.4305 65.3185 46.0184L63.3563 50.1601C63.0777 50.748 62.3711 50.9987 61.7781 50.7199C61.1851 50.4411 60.9301 49.7384 61.2087 49.1505L63.1709 45.0088C63.4495 44.4209 64.1561 44.1702 64.7491 44.449Z" fill="#FF7268"/>
<path fill-rule="evenodd" clip-rule="evenodd" d="M82.0164 18.1302C82.0164 20.9761 81.3636 23.6304 80.2001 25.9721C76.867 33.2413 70.8152 40.4977 63.9667 48.0247V36.254V35.7831H63.9665C63.9664 35.7831 63.9664 35.7831 63.9664 35.7831V36.254V48.0247C57.0539 40.5263 51.1336 33.2965 47.7743 26.055C46.5849 23.6931 45.9165 21.0098 45.9165 18.1302C45.9165 8.11718 53.9977 6.10352e-05 63.9665 6.10352e-05C73.9352 6.10352e-05 82.0164 8.11718 82.0164 18.1302Z" fill="#E5ECE9"/>
<ellipse cx="64.1248" cy="18.0485" rx="7.91665" ry="7.84717" fill="#E5ECE9"/>
<path fill-rule="evenodd" clip-rule="evenodd" d="M77.6529 24.782C78.6224 22.8307 79.1664 20.6189 79.1664 18.2473C79.1664 9.90318 72.432 3.13892 64.1248 3.13892C55.8175 3.13892 49.0831 9.90318 49.0831 18.2473C49.0831 20.6471 49.6402 22.8834 50.6315 24.8516C53.4309 30.8861 58.3644 36.9109 64.1247 43.1595V33.3505V32.9581H64.1248H64.125V33.3505V43.1595C69.8322 36.8868 74.8754 30.8397 77.6529 24.782ZM64.1248 23.5416C67.6226 23.5416 70.4581 20.7309 70.4581 17.2638C70.4581 13.7967 67.6226 10.9861 64.1248 10.9861C60.627 10.9861 57.7915 13.7967 57.7915 17.2638C57.7915 20.7309 60.627 23.5416 64.1248 23.5416Z" fill="#FF4B3E"/>
<path d="M90.9981 63.9441L91.1581 50.9441H94.4981L98.1381 60.5241H98.2181L101.798 50.9441H104.898L105.038 63.9441H102.338L102.198 54.1041H102.138L98.5181 63.9441H96.4581L92.8381 54.1041H92.7781L92.7181 63.9441H90.9981ZM107.787 63.9441V53.9441H110.447V60.5241L114.107 53.9441H116.427V63.9441H113.767V56.9641L109.867 63.9441H107.787ZM118.822 53.9441H120.962L121.322 54.8441H121.382C121.382 54.8174 121.496 54.7108 121.722 54.5241C121.949 54.3241 122.262 54.1441 122.662 53.9841C123.062 53.8108 123.542 53.7241 124.102 53.7241C125.289 53.7241 126.222 54.1774 126.902 55.0841C127.582 55.9908 127.922 57.2108 127.922 58.7441C127.922 59.8241 127.762 60.7774 127.442 61.6041C127.122 62.4174 126.662 63.0508 126.062 63.5041C125.476 63.9441 124.776 64.1641 123.962 64.1641C123.442 64.1641 123.002 64.1041 122.642 63.9841C122.282 63.8774 122.009 63.7641 121.822 63.6441C121.636 63.5108 121.542 63.4308 121.542 63.4041H121.482V68.9441L118.822 69.0241V53.9441ZM122.962 62.6441C123.469 62.6441 123.869 62.5241 124.162 62.2841C124.469 62.0441 124.696 61.6508 124.842 61.1041C124.989 60.5441 125.062 59.7774 125.062 58.8041C125.062 57.8841 124.989 57.1708 124.842 56.6641C124.709 56.1441 124.502 55.7841 124.222 55.5841C123.956 55.3841 123.602 55.2841 123.162 55.2841C122.842 55.2841 122.556 55.3441 122.302 55.4641C122.062 55.5841 121.869 55.7108 121.722 55.8441C121.589 55.9774 121.509 56.0774 121.482 56.1441V61.9841C121.509 62.0241 121.576 62.0974 121.682 62.2041C121.789 62.2974 121.949 62.3974 122.162 62.5041C122.389 62.5974 122.656 62.6441 122.962 62.6441Z" fill="#E5ECE9"/>
<path d="M90.6581 81.9927V71.9927H98.9381V81.9927H96.2781V73.4527H93.3181V81.9927H90.6581ZM102.161 87.2127C101.855 87.2127 101.581 87.186 101.341 87.1327C101.115 87.0927 100.941 87.046 100.821 86.9927C100.701 86.9527 100.628 86.926 100.601 86.9127L100.821 85.3527C100.875 85.3793 101.008 85.4193 101.221 85.4727C101.435 85.5393 101.648 85.5727 101.861 85.5727C102.461 85.5727 102.948 85.3327 103.321 84.8527C103.695 84.386 104.108 83.566 104.561 82.3927L100.301 71.9927H103.521L105.961 79.1127L108.021 71.9927H109.681L106.221 82.2127C105.808 83.346 105.415 84.266 105.041 84.9727C104.681 85.6793 104.268 86.226 103.801 86.6127C103.335 87.0127 102.788 87.2127 102.161 87.2127ZM112.89 81.9927V73.4527H110.01L109.99 71.9927H118.41V73.4527H115.53V81.9927H112.89ZM123.898 82.2127C122.418 82.2127 121.264 81.806 120.438 80.9927C119.624 80.166 119.218 78.8927 119.218 77.1727C119.218 75.4393 119.618 74.1127 120.418 73.1927C121.218 72.2593 122.298 71.7927 123.658 71.7927C124.898 71.7927 125.858 72.186 126.538 72.9727C127.231 73.746 127.578 74.8593 127.578 76.3127C127.578 76.646 127.551 76.926 127.498 77.1527C127.458 77.3793 127.431 77.5193 127.418 77.5727H122.038C122.051 78.7727 122.224 79.626 122.558 80.1327C122.904 80.626 123.458 80.8727 124.218 80.8727C124.671 80.8727 125.071 80.7793 125.418 80.5927C125.764 80.3927 126.038 80.1793 126.238 79.9527C126.438 79.7127 126.538 79.5793 126.538 79.5527L127.438 80.2527C127.438 80.306 127.298 80.4993 127.018 80.8327C126.751 81.166 126.351 81.4793 125.818 81.7727C125.298 82.066 124.658 82.2127 123.898 82.2127ZM125.098 76.2727V75.8127C125.098 74.7993 124.991 74.0927 124.778 73.6927C124.564 73.2793 124.191 73.0727 123.658 73.0727C123.284 73.0727 122.984 73.166 122.758 73.3527C122.544 73.5393 122.378 73.866 122.258 74.3327C122.138 74.786 122.064 75.4327 122.038 76.2727H125.098ZM129.31 81.9927V71.9927H131.97V80.5327H134.33V71.9927H136.99V80.5327H139.33V71.9927H141.99V81.9927H129.31ZM148.468 82.2127C146.988 82.2127 145.835 81.806 145.008 80.9927C144.195 80.166 143.788 78.8927 143.788 77.1727C143.788 75.4393 144.188 74.1127 144.988 73.1927C145.788 72.2593 146.868 71.7927 148.228 71.7927C149.468 71.7927 150.428 72.186 151.108 72.9727C151.801 73.746 152.148 74.8593 152.148 76.3127C152.148 76.646 152.121 76.926 152.068 77.1527C152.028 77.3793 152.001 77.5193 151.988 77.5727H146.608C146.621 78.7727 146.795 79.626 147.128 80.1327C147.475 80.626 148.028 80.8727 148.788 80.8727C149.241 80.8727 149.641 80.7793 149.988 80.5927C150.335 80.3927 150.608 80.1793 150.808 79.9527C151.008 79.7127 151.108 79.5793 151.108 79.5527L152.008 80.2527C152.008 80.306 151.868 80.4993 151.588 80.8327C151.321 81.166 150.921 81.4793 150.388 81.7727C149.868 82.066 149.228 82.2127 148.468 82.2127ZM149.668 76.2727V75.8127C149.668 74.7993 149.561 74.0927 149.348 73.6927C149.135 73.2793 148.761 73.0727 148.228 73.0727C147.855 73.0727 147.555 73.166 147.328 73.3527C147.115 73.5393 146.948 73.866 146.828 74.3327C146.708 74.786 146.635 75.4327 146.608 76.2727H149.668ZM158.021 82.2127C156.487 82.2127 155.307 81.7727 154.481 80.8927C153.667 80.0127 153.261 78.7327 153.261 77.0527C153.261 75.426 153.687 74.1393 154.541 73.1927C155.394 72.246 156.574 71.7727 158.081 71.7727C158.494 71.7727 158.914 71.8327 159.341 71.9527C159.781 72.0593 160.147 72.1793 160.441 72.3127C160.734 72.4327 160.921 72.5127 161.001 72.5527L160.741 73.8327C160.674 73.7927 160.507 73.7193 160.241 73.6127C159.974 73.4927 159.667 73.3793 159.321 73.2727C158.974 73.166 158.661 73.1127 158.381 73.1127C157.874 73.1127 157.461 73.2193 157.141 73.4327C156.821 73.646 156.574 74.0393 156.401 74.6127C156.227 75.1727 156.141 75.9727 156.141 77.0127C156.141 78.4927 156.327 79.506 156.701 80.0527C157.074 80.5993 157.607 80.8727 158.301 80.8727C158.767 80.8727 159.167 80.7727 159.501 80.5727C159.847 80.3593 160.114 80.1393 160.301 79.9127C160.487 79.6727 160.581 79.5327 160.581 79.4927L161.521 80.0927C161.521 80.1727 161.401 80.3927 161.161 80.7527C160.921 81.0993 160.541 81.4327 160.021 81.7527C159.501 82.0593 158.834 82.2127 158.021 82.2127ZM164.707 81.9927V73.4527H161.827L161.807 71.9927H170.227V73.4527H167.347V81.9927H164.707ZM171.654 71.9927H175.474C176.888 71.9927 177.914 72.2393 178.554 72.7327C179.194 73.2127 179.514 73.8593 179.514 74.6727C179.514 75.6727 178.928 76.406 177.754 76.8727C178.341 77.0327 178.834 77.2993 179.234 77.6727C179.648 78.0327 179.854 78.4993 179.854 79.0727C179.854 80.006 179.521 80.726 178.854 81.2327C178.188 81.7393 177.074 81.9927 175.514 81.9927H171.654V71.9927ZM175.774 76.4527C175.774 76.4793 175.874 76.4527 176.074 76.3727C176.274 76.2793 176.454 76.1127 176.614 75.8727C176.774 75.6193 176.854 75.266 176.854 74.8127C176.854 73.7327 176.381 73.1927 175.434 73.1927H174.314V76.4527H175.774ZM175.454 80.7927C176.041 80.7927 176.468 80.626 176.734 80.2927C177.001 79.9593 177.134 79.5127 177.134 78.9527C177.134 77.9127 176.621 77.3927 175.594 77.3927H174.314V80.7927H175.454ZM181.635 81.9927V71.9927H184.295V78.5727L187.955 71.9927H190.275V81.9927H187.615V75.0127L183.715 81.9927H181.635ZM192.67 81.9927V71.9927H195.33V78.5727L198.99 71.9927H201.31V81.9927H198.65V75.0127L194.75 81.9927H192.67ZM197.11 70.7327C195.723 70.7327 194.85 70.4393 194.49 69.8527C194.13 69.2527 193.95 68.726 193.95 68.2727L196.03 68.0927V68.3327C196.017 68.3593 195.997 68.4127 195.97 68.4927C195.957 68.5593 195.95 68.6393 195.95 68.7327C195.95 68.946 196.037 69.1327 196.21 69.2927C196.383 69.4393 196.683 69.5127 197.11 69.5127C197.55 69.5127 197.857 69.4393 198.03 69.2927C198.203 69.1327 198.29 68.946 198.29 68.7327C198.29 68.6393 198.277 68.5593 198.25 68.4927C198.237 68.4127 198.223 68.3593 198.21 68.3327V68.0927L200.29 68.2727C200.29 68.726 200.103 69.2527 199.73 69.8527C199.37 70.4393 198.497 70.7327 197.11 70.7327Z" fill="#E5ECE9"/>
</svg>
